<svg xmlns="http://www.w3.org/2000/svg" version="1.1" xmlns:xlink="http://www.w3.org/1999/xlink" xmlns:svgjs="http://svgjs.dev/svgjs" width="1500" height="1500" viewBox="0 0 1500 1500"><rect width="1500" height="1500" fill="#000000"></rect><g transform="matrix(0.6666666666666666,0,0,0.6666666666666666,250,246.5484970492082)"><svg viewBox="0 0 280 281" data-background-color="#ececea" preserveAspectRatio="xMidYMid meet" height="1505" width="1500" xmlns="http://www.w3.org/2000/svg" xmlns:xlink="http://www.w3.org/1999/xlink"><g id="tight-bounds" transform="matrix(1,0,0,1,0,0.500127369368073)"><svg viewBox="0 0 280 280" height="280" width="280"><g><svg viewBox="0 0 280 280" height="280" width="280"><g><svg viewBox="0 0 280 280" height="280" width="280"><g id="textblocktransform"><svg viewBox="0 0 280 280" height="280" width="280" id="textblock"><g><svg viewBox="0 0 280 280" height="280" width="280"><g transform="matrix(1,0,0,1,57.50420886156945,57.50420886156945)"><svg viewBox="0 0 164.9915822768611 164.9915822768611" height="164.9915822768611" width="164.9915822768611"><g id="icon-0"><circle r="82" cx="82.49579113843055" cy="82.49579113843055" fill="#ffffff" data-fill-palette-color="accent"></circle><svg xmlns="http://www.w3.org/2000/svg" xmlns:xlink="http://www.w3.org/1999/xlink" version="1.1" x="24.748737341529164" y="24.74873734152917" viewBox="43.157 41.83 425.686 428.341" style="enable-background:new 0 0 512 512;" xml:space="preserve" height="115.49410759380275" width="115.49410759380275" class="icon-jxe-0" data-fill-palette-color="quaternary" id="jxe-0"><g fill="#ececea" data-fill-palette-color="quaternary"><path d="M178.897 375.417H277.103A50.71 50.71 0 0 0 318.914 353.406L342.418 319.202C344.72 315.857 343.857 311.271 340.512 308.952 337.149 306.686 332.581 307.477 330.262 310.858L306.758 345.062C300.068 354.845 288.973 360.671 277.104 360.671H178.898C174.834 360.671 171.525 363.98 171.525 368.044 171.524 372.108 174.833 375.417 178.897 375.417" fill="#000000" data-fill-palette-color="quaternary"></path><path d="M461.467 442.782C443.142 442.782 433.863 446.235 424.889 449.562 416.779 452.583 409.118 455.425 393.436 455.425S370.112 452.584 362.001 449.58C353.027 446.235 343.748 442.782 325.405 442.782 307.098 442.782 297.819 446.235 288.863 449.58 280.771 452.583 273.128 455.425 257.482 455.425S234.194 452.584 226.101 449.58C217.145 446.235 207.884 442.782 189.577 442.782S162.009 446.235 153.053 449.58C144.961 452.583 137.318 455.425 121.672 455.425 105.901 455.425 97.431 452.548 88.457 449.509 78.764 446.2 68.729 442.783 50.53 442.783 46.466 442.783 43.157 446.092 43.157 450.156S46.466 457.529 50.53 457.529C66.283 457.529 74.753 460.406 83.727 463.445 93.42 466.754 103.473 470.171 121.672 470.171 139.979 470.171 149.24 466.718 158.196 463.373 166.288 460.37 173.931 457.528 189.577 457.528S212.865 460.369 220.958 463.373C229.914 466.718 239.175 470.171 257.482 470.171S285.05 466.718 294.006 463.373C302.098 460.37 309.741 457.528 325.405 457.528 341.086 457.528 348.747 460.369 356.858 463.391 365.832 466.718 375.111 470.171 393.436 470.171 411.779 470.171 421.058 466.718 430.032 463.373 438.142 460.37 445.785 457.528 461.467 457.528 465.531 457.528 468.84 454.219 468.84 450.155S465.531 442.782 461.467 442.782" fill="#000000" data-fill-palette-color="quaternary"></path><path d="M461.467 414.063C443.142 414.063 433.863 417.516 424.889 420.861 416.779 423.882 409.118 426.724 393.436 426.724S370.112 423.883 362.001 420.861C353.027 417.516 343.748 414.063 325.405 414.063 307.098 414.063 297.819 417.534 288.863 420.861 280.771 423.882 273.128 426.724 257.482 426.724S234.194 423.883 226.101 420.861C217.145 417.516 207.884 414.063 189.577 414.063S162.009 417.516 153.053 420.861C144.961 423.882 137.318 426.724 121.672 426.724 105.901 426.724 97.431 423.847 88.457 420.79 78.764 417.481 68.729 414.064 50.53 414.064 46.466 414.064 43.157 417.373 43.157 421.437S46.466 428.81 50.53 428.81C66.283 428.81 74.753 431.687 83.709 434.744 93.42 438.053 103.473 441.47 121.672 441.47 139.979 441.47 149.24 438.017 158.196 434.672 166.288 431.651 173.931 428.809 189.577 428.809S212.865 431.65 220.958 434.672C229.914 438.017 239.175 441.47 257.482 441.47S285.05 438.017 294.006 434.672C302.098 431.651 309.741 428.809 325.405 428.809 341.086 428.809 348.747 431.65 356.858 434.672 365.832 438.017 375.111 441.47 393.436 441.47 411.779 441.47 421.058 438.017 430.032 434.672 438.142 431.651 445.785 428.809 461.467 428.809 465.531 428.809 468.84 425.5 468.84 421.436S465.531 414.063 461.467 414.063" fill="#000000" data-fill-palette-color="quaternary"></path><path d="M50.533 400.108C66.286 400.108 74.756 402.985 83.712 406.042 93.423 409.351 103.476 412.768 121.675 412.768 139.982 412.768 149.243 409.315 158.199 405.97 166.291 402.949 173.934 400.107 189.58 400.107S212.868 402.948 220.961 405.97C229.917 409.315 239.178 412.768 257.485 412.768S285.053 409.315 294.009 405.97C302.101 402.949 309.744 400.107 325.408 400.107 341.089 400.107 348.75 402.948 356.861 405.97 365.835 409.315 375.114 412.768 393.439 412.768 411.782 412.768 421.061 409.315 430.035 405.97 438.145 402.949 445.788 400.107 461.47 400.107 465.534 400.107 468.843 396.798 468.843 392.734S465.534 385.361 461.47 385.361C443.145 385.361 433.866 388.814 424.892 392.159 416.782 395.18 409.121 398.022 393.439 398.022S370.115 395.181 362.004 392.159C355.139 389.6 348.014 387.008 336.871 385.917 339.379 383.043 341.728 380.125 343.517 377.377L408.382 277.265A7.4 7.4 0 0 0 408.67 269.73 7.37 7.37 0 0 0 402.196 265.882H362.165V197.906C362.165 193.842 358.856 190.533 354.792 190.533H349.217V136.026C349.217 131.962 345.908 128.653 341.844 128.653H295.286V49.203C295.286 45.139 291.977 41.83 287.913 41.83H136.351C132.287 41.83 128.978 45.139 128.978 49.203V128.653H79.36C75.296 128.653 71.987 131.962 71.987 136.026V190.533H66.412C62.348 190.533 59.039 193.842 59.039 197.906V265.882H50.533C46.469 265.882 43.16 269.191 43.16 273.255V392.735C43.16 396.799 46.469 400.108 50.533 400.108M347.418 205.278V265.881H218.388V205.278zM334.47 143.398V190.532H230.509V143.398zM196.197 56.575H232.865V79.306L218.46 70.26C216.068 68.749 213.029 68.731 210.637 70.26L196.197 79.306zM143.722 56.575H181.451V92.613A7.34 7.34 0 0 0 185.263 99.051 7.2 7.2 0 0 0 188.824 99.986 7.24 7.24 0 0 0 192.726 98.853L214.54 85.186 236.318 98.853C238.602 100.274 241.479 100.382 243.799 99.051A7.34 7.34 0 0 0 247.611 92.613V56.575H280.538V128.652H143.722zM215.763 143.398V190.532H205.44V143.398zM86.733 143.398H190.694V190.532H86.733zM73.785 205.278H202.815V265.881H73.785zM57.906 280.628H388.653L331.143 369.357C327.603 374.81 321.25 381.598 315.882 385.827 303.729 386.808 296.068 389.483 288.864 392.159 280.772 395.18 273.129 398.022 257.483 398.022S234.195 395.181 226.102 392.159C217.146 388.814 207.885 385.361 189.578 385.361S162.01 388.814 153.054 392.159C144.962 395.18 137.319 398.022 121.673 398.022 105.902 398.022 97.432 395.145 88.458 392.088 80.225 389.277 71.425 386.522 57.905 385.715z" fill="#000000" data-fill-palette-color="quaternary"></path></g></svg></g></svg></g><g id="text-0"><path d="M30.918 106.175l-13.769-4.67 1.173-3.459 15.314 5.195c-0.013 0.122-0.023 0.357-0.028 0.705-0.006 0.348-0.061 0.676-0.166 0.984v0c-0.194 0.572-0.529 0.97-1.004 1.193-0.467 0.22-0.974 0.237-1.52 0.052zM8.314 94.652l15.059 5.108-1.22 3.442-13.467-4.567c-0.572-0.194-0.973-0.519-1.203-0.976-0.222-0.461-0.236-0.977-0.042-1.549v0c0.104-0.308 0.251-0.605 0.438-0.891 0.195-0.284 0.339-0.473 0.435-0.567zM25.595 88.965l-4.046 11.931-2.903-0.985 4.366-12.873c0.141-0.043 0.355-0.065 0.643-0.066 0.285 0.006 0.569 0.057 0.852 0.152v0c0.459 0.156 0.791 0.394 0.997 0.717 0.206 0.322 0.237 0.697 0.091 1.124zM38.01 91.463l-4.568 13.467-2.912-0.988 4.887-14.41c0.149-0.047 0.357-0.072 0.624-0.072 0.275-0.005 0.569 0.046 0.883 0.153v0c0.452 0.153 0.784 0.395 0.994 0.726 0.206 0.322 0.237 0.697 0.092 1.124zM14.885 83.86l-4.495 13.251-2.949-1.001 4.814-14.192c0.143-0.05 0.357-0.072 0.642-0.066 0.287-0.001 0.573 0.047 0.855 0.143v0c0.459 0.156 0.797 0.397 1.016 0.722 0.223 0.335 0.262 0.716 0.117 1.143z" fill="#ffffff" data-fill-palette-color="primary"></path><path d="M52.615 62.477v0l-12.204-9.005 2.105-2.936 12.356 9.117c0.459 0.339 0.753 0.717 0.883 1.133 0.128 0.408 0.164 0.929 0.107 1.564v0c-0.043 0.718-0.257 1.628-0.641 2.73-0.384 1.102-1.004 2.232-1.859 3.39v0c-1.288 1.746-2.726 3.063-4.314 3.953-1.589 0.88-3.31 1.218-5.163 1.013-1.847-0.201-3.801-1.061-5.862-2.581v0c-2.109-1.556-3.543-3.187-4.303-4.895-0.764-1.702-0.991-3.411-0.681-5.128 0.31-1.717 1.021-3.328 2.132-4.833v0c0.693-0.94 1.487-1.735 2.379-2.387 0.893-0.652 1.714-1.077 2.463-1.275v0l2.69 1.985c-0.803 0.116-1.641 0.425-2.514 0.927-0.869 0.496-1.67 1.241-2.403 2.234v0c-0.733 0.993-1.201 2.069-1.406 3.23-0.199 1.164-0.003 2.356 0.589 3.576 0.593 1.229 1.702 2.443 3.324 3.64v0c2.205 1.627 4.203 2.277 5.995 1.95 1.791-0.327 3.339-1.374 4.643-3.142v0c0.626-0.849 1.05-1.612 1.27-2.29 0.22-0.678 0.358-1.335 0.414-1.97zM35.141 45.094l8.104 5.979-2.113 2.931-9.193-6.783c0.043-0.158 0.127-0.384 0.254-0.679 0.13-0.3 0.294-0.583 0.491-0.85v0c0.394-0.534 0.785-0.851 1.173-0.952 0.397-0.103 0.825 0.015 1.284 0.354z" fill="#ffffff" data-fill-palette-color="primary"></path><path d="M66.25 43.748v0l-2.42-3.322 2.92-2.127 2.315 3.178c1.133 1.555 2.363 2.371 3.689 2.446 1.322 0.08 2.712-0.412 4.171-1.474v0c0.976-0.711 1.73-1.416 2.263-2.116 0.529-0.705 0.909-1.31 1.14-1.816v0l-4.81-6.604 2.92-2.127 4.734 6.5c0.371 0.509 0.601 0.966 0.69 1.369 0.089 0.403-0.019 0.937-0.323 1.602v0c-0.3 0.703-0.845 1.567-1.633 2.593-0.787 1.016-1.872 2.028-3.255 3.035v0c-1.609 1.172-3.151 1.934-4.626 2.286-1.479 0.347-2.87 0.24-4.174-0.321-1.303-0.561-2.504-1.595-3.601-3.102zM73.921 23.584l5.9 8.101-2.92 2.126-6.703-9.202c0.083-0.134 0.231-0.325 0.446-0.571 0.214-0.246 0.453-0.465 0.716-0.657v0c0.536-0.391 1.007-0.578 1.413-0.561 0.41 0.022 0.792 0.276 1.148 0.764zM62.233 32.097l5.9 8.101-2.92 2.127-6.703-9.203c0.088-0.138 0.239-0.33 0.454-0.577 0.209-0.243 0.461-0.471 0.756-0.686v0c0.509-0.371 0.967-0.548 1.373-0.532 0.404 0.026 0.784 0.282 1.14 0.77z" fill="#ffffff" data-fill-palette-color="primary"></path><path d="M112.817 28.401v0 0c-0.111 0.159-0.349 0.364-0.716 0.616-0.358 0.256-0.782 0.459-1.27 0.609v0c-0.545 0.168-1.058 0.239-1.538 0.214-0.486-0.024-0.848-0.173-1.085-0.447v0c-0.738-0.752-1.645-1.781-2.721-3.088-1.082-1.305-2.26-2.775-3.534-4.41-1.276-1.641-2.559-3.329-3.849-5.062-1.288-1.727-2.509-3.413-3.66-5.058-1.152-1.645-2.161-3.107-3.028-4.389v0c0.101-0.281 0.291-0.576 0.571-0.884 0.288-0.304 0.648-0.522 1.079-0.655v0c0.545-0.168 0.987-0.165 1.325 0.008 0.34 0.18 0.676 0.504 1.007 0.971v0c2.42 3.351 4.771 6.611 7.052 9.783 2.281 3.171 4.683 6.34 7.206 9.506v0l0.172-0.053c0.157-2.443 0.297-5.079 0.418-7.907 0.122-2.828 0.192-5.724 0.21-8.686 0.016-2.969-0.037-5.837-0.16-8.604v0c0.161-0.175 0.359-0.322 0.593-0.443 0.229-0.112 0.49-0.213 0.781-0.303v0c0.514-0.158 0.968-0.159 1.363-0.003 0.397 0.162 0.676 0.504 0.836 1.024v0c0.133 0.431 0.222 1.285 0.268 2.562 0.046 1.277 0.054 2.802 0.023 4.574-0.037 1.775-0.097 3.653-0.18 5.637-0.086 1.977-0.194 3.923-0.327 5.838-0.139 1.917-0.275 3.628-0.408 5.134-0.133 1.506-0.276 2.678-0.428 3.516z" fill="#ffffff" data-fill-palette-color="primary"></path><path d="M156.686 14.497v0 0c-0.028 2.229-0.473 4.164-1.336 5.806-0.863 1.648-2.066 2.914-3.61 3.796-1.55 0.883-3.364 1.312-5.44 1.286v0c-2.076-0.026-3.885-0.499-5.426-1.421-1.541-0.921-2.723-2.217-3.545-3.885-0.822-1.662-1.219-3.608-1.191-5.837v0c0.028-2.262 0.484-4.207 1.366-5.835 0.876-1.628 2.096-2.883 3.66-3.766 1.557-0.89 3.36-1.322 5.41-1.297v0c2.05 0.025 3.835 0.502 5.356 1.43 1.528 0.921 2.709 2.207 3.545 3.856 0.835 1.649 1.239 3.605 1.211 5.867zM146.537 6.33v0 0c-2.017-0.025-3.628 0.668-4.833 2.079-1.212 1.418-1.833 3.378-1.864 5.879v0c-0.031 2.527 0.525 4.505 1.668 5.932 1.143 1.427 2.753 2.154 4.829 2.18v0c2.05 0.025 3.661-0.668 4.833-2.08 1.179-1.419 1.784-3.375 1.815-5.869v0c0.031-2.501-0.525-4.475-1.669-5.922-1.137-1.441-2.73-2.174-4.779-2.199z" fill="#ffffff" data-fill-palette-color="primary"></path><path d="M178.007 25.421v0 0c-0.182-1.08-0.36-2.511-0.534-4.294-0.174-1.783-0.308-3.762-0.401-5.937-0.089-2.167-0.135-4.361-0.136-6.583v0c0.295-0.217 0.634-0.357 1.018-0.419 0.384-0.062 0.761-0.032 1.133 0.091v0c0.485 0.16 0.844 0.418 1.076 0.773 0.23 0.362 0.346 0.879 0.349 1.55v0c0.066 2.683 0.181 5.365 0.345 8.046 0.162 2.687 0.394 5.491 0.696 8.413v0l0.17 0.056c1.001-1.004 2.127-2.299 3.376-3.886 1.247-1.58 2.503-3.272 3.769-5.076 1.259-1.806 2.382-3.529 3.368-5.167v0c0.224-0.024 0.471-0.03 0.739-0.018 0.262 0.01 0.538 0.062 0.829 0.158v0c0.485 0.16 0.846 0.411 1.082 0.755 0.234 0.35 0.271 0.767 0.111 1.252v0c-0.149 0.454-0.531 1.177-1.144 2.169-0.611 0.986-1.37 2.112-2.277 3.378-0.915 1.27-1.926 2.603-3.035 3.998-1.109 1.395-2.25 2.748-3.423 4.058-1.177 1.303-2.312 2.458-3.406 3.468v0c-2.116 1.992-3.931 3.462-5.444 4.408-1.512 0.941-2.727 1.26-3.648 0.957v0c-0.655-0.216-1.107-0.553-1.353-1.012-0.239-0.463-0.327-0.936-0.266-1.418v0c0.811-0.341 1.757-0.828 2.84-1.464 1.078-0.644 2.155-1.368 3.23-2.173 1.076-0.805 1.995-1.602 2.758-2.392v0c-0.437-0.305-0.803-0.712-1.096-1.22-0.287-0.507-0.529-1.33-0.726-2.471z" fill="#ffffff" data-fill-palette-color="primary"></path><path d="M210.251 43.844v0 0c1.046 0.715 1.985 1.199 2.816 1.453 0.822 0.256 1.45 0.388 1.886 0.396v0l3.692-5.408-4.958-2.674c-1.36-0.784-2.511-1.152-3.452-1.104-0.946 0.045-1.726 0.516-2.339 1.415v0c-0.625 0.915-0.75 1.886-0.375 2.913 0.379 1.022 1.289 2.025 2.73 3.009zM220.992 28.042v0 0c2.159 1.474 3.543 3.13 4.152 4.967 0.603 1.834 0.191 3.797-1.239 5.891v0l-6.032 8.835c-0.374 0.548-0.763 0.893-1.166 1.036-0.408 0.139-0.909 0.19-1.503 0.154v0c-0.818-0.085-1.816-0.328-2.995-0.731-1.184-0.407-2.398-1.035-3.642-1.885v0c-2.334-1.594-3.828-3.288-4.481-5.084-0.654-1.796-0.386-3.565 0.804-5.307v0c1.104-1.616 2.49-2.481 4.158-2.596 1.667-0.123 3.516 0.38 5.548 1.511v0l5.654 3.102 0.713-1.044c0.849-1.244 1.098-2.408 0.745-3.492-0.356-1.079-1.17-2.052-2.44-2.92v0c-1.019-0.696-2.095-1.214-3.229-1.554-1.137-0.335-2.195-0.563-3.172-0.683v0c-0.078-0.31-0.118-0.639-0.122-0.987 0.002-0.344 0.087-0.639 0.255-0.886v0c0.441-0.647 1.141-0.9 2.098-0.761v0c0.913 0.11 1.875 0.372 2.884 0.788 1.009 0.416 2.013 0.964 3.01 1.646z" fill="#ffffff" data-fill-palette-color="primary"></path><path d="M234.125 69.341v0 0c-1.094-1.368-1.836-2.838-2.228-4.412-0.391-1.573-0.27-3.19 0.363-4.852 0.634-1.671 1.939-3.296 3.913-4.874v0c1.788-1.429 3.557-2.276 5.31-2.539 1.757-0.267 3.431-0.033 5.02 0.701 1.589 0.734 3.014 1.888 4.273 3.463v0c0.866 1.083 1.524 2.188 1.975 3.314 0.452 1.117 0.722 2.141 0.812 3.071v0c0.049 0.539 0.016 1.04-0.097 1.505-0.117 0.459-0.386 0.856-0.805 1.192v0l-10.905 8.72-2.256-2.822 10.866-8.688c-0.064-0.611-0.233-1.296-0.508-2.054-0.284-0.758-0.755-1.55-1.414-2.373v0c-1.26-1.575-2.757-2.459-4.491-2.652-1.734-0.193-3.555 0.473-5.461 1.997v0c-2.114 1.69-3.23 3.381-3.348 5.072-0.108 1.692 0.412 3.256 1.56 4.691v0c0.825 1.031 1.668 1.724 2.53 2.08 0.858 0.35 1.65 0.545 2.377 0.583v0l-2.39 2.141c-0.66-0.05-1.455-0.332-2.384-0.845-0.925-0.509-1.829-1.315-2.712-2.419zM236.399 74.288v0l3.7-2.958 2.256 2.821-3.878 3.101c-1.549 1.239-3.065 1.899-4.547 1.979-1.472 0.082-2.887-0.291-4.244-1.116-1.353-0.821-2.614-1.962-3.782-3.423v0c-0.941-1.176-1.619-2.29-2.035-3.342-0.416-1.052-0.664-1.797-0.743-2.235v0c-0.165-1.024 0.059-1.78 0.67-2.269v0c0.332-0.265 0.669-0.412 1.012-0.44 0.347-0.023 0.671 0.037 0.972 0.179v0c0.021 0.791 0.235 1.766 0.644 2.925 0.404 1.164 1.018 2.261 1.843 3.292v0c1.26 1.575 2.567 2.509 3.922 2.802 1.351 0.287 2.755-0.151 4.21-1.316z" fill="#ffffff" data-fill-palette-color="primary"></path><path d="M262.576 103.917l-7.417-13.409 2.593-1.187 6.613 12.065c1.499-0.703 2.568-1.725 3.205-3.063 0.631-1.337 0.622-2.85-0.026-4.541v0c-0.668-1.74-1.846-2.94-3.535-3.6-1.689-0.66-3.7-0.541-6.036 0.355v0l-0.929 0.356c-2.172 1.061-3.595 2.456-4.267 4.185-0.675 1.723-0.585 3.696 0.268 5.92v0c0.452 1.177 1.056 2.167 1.812 2.971 0.765 0.808 1.478 1.408 2.141 1.801v0c-0.082 0.38-0.22 0.713-0.415 1.001-0.197 0.282-0.463 0.487-0.798 0.616v0c-0.533 0.204-1.147 0.095-1.842-0.327-0.698-0.429-1.38-1.087-2.048-1.975-0.661-0.89-1.23-1.955-1.705-3.194v0c-0.83-2.162-1.155-4.186-0.977-6.074 0.176-1.894 0.88-3.567 2.113-5.021 1.23-1.46 2.97-2.621 5.218-3.484v0c1.604-0.616 3.121-0.931 4.55-0.947 1.423-0.013 2.731 0.228 3.923 0.722 1.192 0.495 2.241 1.229 3.148 2.203 0.907 0.974 1.619 2.136 2.137 3.486v0c0.658 1.716 0.873 3.367 0.644 4.955-0.229 1.587-0.855 3.004-1.877 4.248-1.022 1.245-2.378 2.192-4.068 2.841v0c-0.619 0.238-1.116 0.268-1.489 0.092-0.376-0.183-0.688-0.514-0.936-0.995z" fill="#ffffff" data-fill-palette-color="primary"></path><path d="M13.862 139.782c0-1.872 1.518-3.389 3.39-3.39 1.872 0 3.389 1.518 3.389 3.39 0 1.872-1.518 3.389-3.389 3.389-1.872 0-3.389-1.518-3.39-3.389z" fill="#ffffff" data-fill-palette-color="primary"></path><path d="M264.647 139.782c0-1.872 1.518-3.389 3.389-3.39 1.872 0 3.389 1.518 3.39 3.39 0 1.872-1.518 3.389-3.39 3.389-1.872 0-3.389-1.518-3.389-3.389z" fill="#ffffff" data-fill-palette-color="primary"></path></g><g id="text-1"><path d="M13.972 179.441l14.595-5.021 1.263 3.67-16.224 5.581c-0.072-0.108-0.219-0.311-0.44-0.606-0.221-0.296-0.389-0.61-0.503-0.943v0c-0.209-0.609-0.187-1.156 0.066-1.643 0.251-0.493 0.665-0.839 1.243-1.038zM40.435 174.442l-15.95 5.487-1.225-3.683 14.285-4.914c0.602-0.207 1.148-0.191 1.637 0.048 0.487 0.232 0.835 0.653 1.044 1.261v0c0.114 0.333 0.182 0.681 0.202 1.046 0.027 0.363 0.029 0.614 0.007 0.755zM29.614 190.435l-4.35-12.647 3.086-1.062 4.694 13.645c-0.095 0.131-0.263 0.287-0.502 0.468-0.237 0.187-0.51 0.333-0.818 0.439v0c-0.483 0.166-0.917 0.179-1.302 0.037-0.383-0.135-0.652-0.428-0.808-0.88zM17.574 196.398l-4.911-14.276 3.087-1.062 5.253 15.273c-0.095 0.131-0.255 0.288-0.48 0.471-0.227 0.176-0.507 0.322-0.839 0.436v0c-0.483 0.166-0.916 0.182-1.299 0.047-0.385-0.141-0.656-0.437-0.811-0.889zM41.925 187.769l-4.832-14.05 3.133-1.078 5.176 15.047c-0.095 0.131-0.262 0.29-0.499 0.477-0.24 0.181-0.51 0.323-0.811 0.426v0c-0.489 0.168-0.932 0.187-1.327 0.057-0.404-0.135-0.684-0.428-0.84-0.879z" fill="#ffffff" data-fill-palette-color="primary"></path><path d="M41.351 226.535v0l12.927-9.6 2.324 3.046-13.087 9.719c-0.485 0.36-0.957 0.541-1.417 0.544-0.455-0.001-0.996-0.128-1.623-0.381v0c-0.715-0.262-1.571-0.758-2.568-1.489-1.002-0.727-1.962-1.708-2.88-2.944v0c-1.369-1.843-2.255-3.709-2.659-5.599-0.409-1.886-0.223-3.739 0.558-5.558 0.785-1.814 2.266-3.53 4.445-5.148v0c2.232-1.657 4.331-2.609 6.297-2.855 1.966-0.245 3.771 0.054 5.415 0.9 1.648 0.85 3.061 2.069 4.24 3.656v0c0.744 1.001 1.309 2.057 1.695 3.166 0.382 1.104 0.56 2.067 0.534 2.889v0l-2.845 2.112c0.121-0.85 0.064-1.795-0.171-2.835-0.235-1.04-0.743-2.085-1.522-3.134v0c-0.783-1.055-1.731-1.863-2.843-2.425-1.116-0.568-2.388-0.739-3.815-0.514-1.427 0.225-3.001 0.977-4.722 2.255v0c-2.333 1.733-3.613 3.559-3.839 5.479-0.227 1.92 0.356 3.818 1.749 5.693v0c0.665 0.895 1.306 1.559 1.925 1.991 0.628 0.434 1.256 0.778 1.882 1.032zM64.415 214.178l-8.588 6.378-2.316-3.052 9.731-7.227c0.148 0.088 0.353 0.242 0.614 0.461 0.266 0.224 0.503 0.477 0.713 0.76v0c0.419 0.565 0.619 1.061 0.598 1.489-0.017 0.434-0.267 0.831-0.752 1.191z" fill="#ffffff" data-fill-palette-color="primary"></path><path d="M62.41 240.869v0l2.56-3.528 3.109 2.257-2.449 3.374c-1.2 1.654-1.626 3.161-1.277 4.521 0.354 1.364 1.308 2.609 2.859 3.735v0c1.036 0.752 1.997 1.281 2.882 1.587 0.885 0.306 1.619 0.491 2.204 0.555v0l5.091-7.015 3.101 2.251-5.01 6.902c-0.394 0.542-0.777 0.924-1.15 1.145-0.383 0.222-0.956 0.29-1.721 0.202v0c-0.815-0.075-1.867-0.342-3.155-0.803-1.284-0.456-2.664-1.22-4.141-2.292v0c-1.707-1.239-2.979-2.548-3.816-3.925-0.836-1.378-1.183-2.814-1.04-4.309 0.137-1.499 0.788-3.051 1.953-4.657zM85.278 242.01l-6.249 8.609-3.101-2.25 7.096-9.778c0.164 0.045 0.404 0.133 0.719 0.264 0.321 0.134 0.623 0.305 0.908 0.511v0c0.569 0.413 0.91 0.824 1.022 1.234 0.114 0.419-0.018 0.889-0.395 1.41zM72.867 233.002l-6.249 8.609-3.109-2.256 7.096-9.777c0.164 0.045 0.406 0.135 0.727 0.269 0.321 0.134 0.634 0.313 0.94 0.535v0c0.542 0.394 0.872 0.797 0.991 1.21 0.114 0.419-0.018 0.889-0.396 1.41z" fill="#ffffff" data-fill-palette-color="primary"></path><path d="M107.025 271.652v0 0c-0.191 0.08-0.52 0.122-0.985 0.126-0.474 0.008-0.968-0.067-1.482-0.225v0c-0.584-0.178-1.079-0.42-1.485-0.724-0.404-0.311-0.634-0.659-0.691-1.044v0c-0.199-1.095-0.382-2.538-0.549-4.33-0.175-1.788-0.335-3.783-0.48-5.985-0.145-2.202-0.267-4.446-0.366-6.731-0.105-2.287-0.175-4.497-0.21-6.63-0.028-2.132-0.045-4.017-0.05-5.656v0c0.258-0.185 0.604-0.329 1.038-0.432 0.434-0.103 0.879-0.085 1.336 0.055v0c0.584 0.178 0.969 0.449 1.157 0.811 0.189 0.356 0.292 0.838 0.306 1.447v0c0.13 4.383 0.255 8.649 0.374 12.8 0.12 4.144 0.345 8.354 0.674 12.631v0l0.181 0.056c1.598-2.05 3.293-4.28 5.084-6.688 1.786-2.416 3.569-4.92 5.346-7.512 1.786-2.597 3.444-5.149 4.975-7.657v0c0.253-0.055 0.516-0.064 0.789-0.029 0.276 0.029 0.566 0.09 0.87 0.182v0c0.552 0.169 0.953 0.444 1.204 0.827 0.253 0.376 0.295 0.839 0.126 1.391v0c-0.14 0.457-0.57 1.262-1.29 2.415-0.718 1.147-1.622 2.491-2.71 4.031-1.088 1.54-2.258 3.153-3.509 4.838-1.253 1.691-2.508 3.337-3.767 4.936-1.261 1.605-2.398 3.03-3.41 4.275-1.018 1.243-1.844 2.183-2.476 2.822z" fill="#ffffff" data-fill-palette-color="primary"></path><path d="M157.563 265.597v0 0c0.031 2.368-0.389 4.437-1.262 6.207-0.872 1.77-2.118 3.143-3.737 4.12-1.613 0.983-3.523 1.49-5.733 1.519v0c-2.202 0.029-4.133-0.427-5.79-1.367-1.658-0.934-2.946-2.273-3.865-4.02-0.919-1.746-1.394-3.803-1.425-6.171v0c-0.032-2.395 0.396-4.467 1.281-6.217 0.892-1.757 2.155-3.127 3.788-4.111 1.633-0.977 3.534-1.48 5.703-1.508v0c2.176-0.029 4.083 0.424 5.72 1.357 1.645 0.94 2.933 2.277 3.865 4.01 0.938 1.726 1.423 3.786 1.455 6.181zM146.564 257.213v0 0c-2.136 0.028-3.828 0.81-5.074 2.346-1.24 1.536-1.843 3.627-1.809 6.274v0c0.035 2.687 0.677 4.772 1.924 6.255 1.254 1.49 2.982 2.22 5.184 2.19v0c2.176-0.029 3.867-0.811 5.075-2.346 1.214-1.535 1.803-3.63 1.768-6.283v0c-0.035-2.647-0.679-4.722-1.933-6.225-1.247-1.503-2.959-2.24-5.135-2.211z" fill="#ffffff" data-fill-palette-color="primary"></path><path d="M181.72 266.059v0 0c-0.836-0.801-1.889-1.911-3.159-3.33-1.274-1.411-2.635-3.013-4.084-4.806-1.451-1.8-2.872-3.648-4.263-5.544v0c0.109-0.371 0.309-0.706 0.602-1.005 0.287-0.297 0.628-0.51 1.025-0.641v0c0.517-0.17 0.988-0.171 1.413-0.003 0.417 0.163 0.837 0.528 1.261 1.094v0c1.753 2.252 3.545 4.474 5.376 6.665 1.829 2.185 3.793 4.431 5.892 6.737v0l0.189-0.062c0.218-1.482 0.362-3.297 0.431-5.443 0.065-2.138 0.067-4.373 0.006-6.706-0.058-2.342-0.184-4.521-0.379-6.538v0c0.183-0.165 0.392-0.328 0.625-0.488 0.234-0.161 0.502-0.291 0.804-0.39v0c0.517-0.17 0.985-0.181 1.403-0.032 0.419 0.149 0.713 0.481 0.884 0.998v0c0.16 0.485 0.288 1.344 0.386 2.575 0.102 1.224 0.164 2.666 0.187 4.328 0.027 1.653 0.006 3.427-0.063 5.322-0.071 1.888-0.195 3.762-0.372 5.622-0.18 1.854-0.42 3.553-0.723 5.098v0c-0.543 3.042-1.165 5.443-1.864 7.202-0.706 1.762-1.544 2.802-2.515 3.121v0c-0.693 0.228-1.292 0.222-1.797-0.017-0.496-0.235-0.868-0.581-1.116-1.036v0c0.477-0.799 0.975-1.815 1.492-3.047 0.525-1.227 0.99-2.522 1.394-3.884 0.41-1.364 0.694-2.627 0.85-3.789v0c-0.567 0.019-1.133-0.099-1.698-0.353-0.57-0.246-1.299-0.795-2.187-1.648z" fill="#ffffff" data-fill-palette-color="primary"></path><path d="M219.692 250.152v0 0c1.109-0.752 1.953-1.488 2.531-2.208 0.572-0.716 0.945-1.29 1.119-1.719v0l-3.897-5.751-4.572 3.844c-1.304 1.044-2.116 2.039-2.437 2.986-0.322 0.956-0.161 1.908 0.483 2.858v0c0.662 0.978 1.574 1.478 2.735 1.5 1.159 0.032 2.505-0.472 4.038-1.51zM208.273 233.391v0 0c2.301-1.559 4.477-2.281 6.528-2.164 2.051 0.117 3.828 1.285 5.332 3.504v0l6.375 9.408c0.395 0.582 0.582 1.101 0.561 1.555-0.017 0.46-0.161 0.975-0.432 1.544v0c-0.406 0.772-1.038 1.661-1.896 2.666-0.863 1.009-1.956 1.963-3.279 2.86v0c-2.488 1.686-4.744 2.502-6.769 2.447-2.025-0.055-3.664-1.007-4.918-2.858v0c-1.165-1.719-1.48-3.425-0.944-5.119 0.526-1.695 1.747-3.324 3.661-4.885v0l5.256-4.379-0.754-1.112c-0.897-1.324-1.946-2.02-3.146-2.088-1.209-0.07-2.49 0.353-3.841 1.268v0c-1.082 0.733-2.012 1.596-2.79 2.589-0.773 0.988-1.41 1.941-1.91 2.857v0c-0.341-0.042-0.682-0.131-1.024-0.268-0.338-0.132-0.598-0.332-0.78-0.602v0c-0.465-0.687-0.438-1.474 0.082-2.363v0c0.461-0.857 1.094-1.703 1.899-2.537 0.805-0.834 1.735-1.608 2.789-2.323z" fill="#ffffff" data-fill-palette-color="primary"></path><path d="M249.989 223.653v0 0c-1.164 1.439-2.519 2.54-4.066 3.303-1.542 0.767-3.25 1.011-5.124 0.733-1.87-0.284-3.847-1.268-5.93-2.954v0c-1.888-1.527-3.17-3.17-3.847-4.929-0.677-1.759-0.816-3.544-0.418-5.354 0.402-1.816 1.277-3.557 2.625-5.224v0c0.922-1.14 1.913-2.075 2.973-2.805 1.061-0.721 2.063-1.232 3.008-1.535v0c0.552-0.176 1.077-0.255 1.574-0.237 0.501 0.013 0.977 0.201 1.425 0.564v0l11.514 9.312-2.41 2.979-11.475-9.281c-0.616 0.202-1.286 0.535-2.01 0.998-0.725 0.463-1.437 1.128-2.138 1.995v0c-1.348 1.666-1.926 3.421-1.736 5.264 0.199 1.842 1.305 3.577 3.317 5.204v0c2.239 1.811 4.247 2.582 6.025 2.314 1.778-0.268 3.279-1.158 4.501-2.67v0c0.884-1.094 1.41-2.128 1.576-3.103 0.175-0.976 0.199-1.844 0.071-2.604v0l2.765 1.993c0.102 0.697-0.007 1.586-0.326 2.667-0.32 1.081-0.951 2.204-1.894 3.37zM254.594 220.159v0l-3.915-3.167 2.409-2.978 4.101 3.316c1.64 1.327 2.673 2.746 3.097 4.258 0.42 1.517 0.355 3.069-0.195 4.656-0.544 1.591-1.44 3.157-2.687 4.699v0c-1.005 1.243-2.006 2.2-3.001 2.872-0.999 0.676-1.716 1.104-2.15 1.281v0c-1.028 0.406-1.864 0.348-2.509-0.173v0c-0.346-0.28-0.572-0.595-0.681-0.947-0.104-0.357-0.117-0.709-0.04-1.057v0c0.819-0.2 1.784-0.644 2.894-1.332 1.107-0.683 2.103-1.571 2.988-2.665v0c1.348-1.666 2.02-3.23 2.016-4.693-0.009-1.466-0.784-2.823-2.327-4.07z" fill="#ffffff" data-fill-palette-color="primary"></path><path d="M263.435 176.217l-3.777 15.813-2.876-0.923 3.44-14.192c-1.683-0.524-3.251-0.486-4.704 0.114-1.451 0.593-2.526 1.783-3.224 3.568v0c-0.723 1.847-0.66 3.632 0.19 5.354 0.857 1.725 2.52 3.071 4.992 4.038v0l0.982 0.385c2.458 0.727 4.571 0.653 6.339-0.222 1.765-0.869 3.107-2.477 4.027-4.825v0c0.491-1.254 0.724-2.467 0.697-3.638-0.017-1.175-0.146-2.156-0.387-2.941v0c0.332-0.248 0.678-0.412 1.037-0.492 0.359-0.08 0.718-0.05 1.076 0.09v0c0.562 0.22 0.966 0.745 1.211 1.575 0.236 0.834 0.296 1.837 0.179 3.009-0.111 1.175-0.423 2.417-0.936 3.727v0c-0.897 2.292-2.092 4.115-3.584 5.468-1.492 1.354-3.24 2.162-5.245 2.424-2.011 0.26-4.206-0.076-6.585-1.007v0c-1.699-0.665-3.113-1.504-4.241-2.515-1.131-1.006-1.988-2.129-2.571-3.369-0.577-1.238-0.873-2.565-0.888-3.981-0.012-1.408 0.262-2.826 0.821-4.253v0c0.711-1.816 1.724-3.265 3.037-4.347 1.314-1.081 2.818-1.747 4.512-1.995 1.691-0.243 3.429-0.015 5.214 0.684v0c0.655 0.256 1.066 0.589 1.235 0.997 0.168 0.408 0.178 0.893 0.029 1.454z" fill="#ffffff" data-fill-palette-color="primary"></path></g></svg></g></svg></g></svg></g></svg></g><defs></defs></svg><rect width="280" height="280" fill="none" stroke="none" visibility="hidden"></rect></g></svg></g></svg>